<svg xmlns="http://www.w3.org/2000/svg" width="900" height="520" viewBox="0 0 900 520" role="img" aria-labelledby="title desc">
  <title id="title">Sitio en construcción</title>
  <desc id="desc">Ilustración de mantenimiento del sitio</desc>
  <defs>
    <linearGradient id="bg" x1="0" y1="0" x2="1" y2="1">
      <stop offset="0%" stop-color="#f2fbff"/>
      <stop offset="100%" stop-color="#e8f6fd"/>
    </linearGradient>
  </defs>
  <rect width="900" height="520" rx="24" fill="url(#bg)"/>
  <g transform="translate(85,70)">
    <rect x="0" y="250" width="730" height="22" rx="11" fill="#d7e8f1"/>
    <rect x="80" y="105" width="150" height="145" rx="8" fill="#00a3e0" opacity="0.16"/>
    <rect x="255" y="65" width="130" height="185" rx="8" fill="#00a3e0" opacity="0.22"/>
    <rect x="410" y="125" width="165" height="125" rx="8" fill="#00a3e0" opacity="0.14"/>
    <rect x="600" y="85" width="95" height="165" rx="8" fill="#00a3e0" opacity="0.2"/>
    <rect x="500" y="5" width="18" height="245" fill="#2f4b60"/>
    <rect x="428" y="16" width="164" height="14" rx="7" fill="#2f4b60"/>
    <line x1="510" y1="30" x2="510" y2="118" stroke="#2f4b60" stroke-width="4"/>
    <rect x="488" y="118" width="44" height="28" rx="6" fill="#00a3e0"/>
    <circle cx="510" cy="132" r="6" fill="#ffffff" opacity="0.9"/>
    <g transform="translate(120,188)">
      <circle cx="0" cy="0" r="30" fill="#00a3e0" opacity="0.18"/>
      <rect x="-8" y="-50" width="16" height="62" rx="8" fill="#2f4b60"/>
      <rect x="-35" y="-62" width="70" height="16" rx="8" fill="#2f4b60"/>
    </g>
    <g transform="translate(330,180)">
      <rect x="-24" y="-36" width="48" height="72" rx="8" fill="#2f4b60"/>
      <rect x="-50" y="-50" width="100" height="14" rx="7" fill="#2f4b60"/>
      <circle cx="0" cy="-22" r="10" fill="#ffffff" opacity="0.9"/>
    </g>
    <g transform="translate(645,186)">
      <rect x="-12" y="-38" width="24" height="78" rx="6" fill="#2f4b60"/>
      <rect x="-35" y="-52" width="70" height="14" rx="7" fill="#2f4b60"/>
      <rect x="-20" y="-20" width="40" height="26" rx="5" fill="#00a3e0"/>
    </g>
  </g>
  <text x="450" y="468" text-anchor="middle" font-family="Arial, Helvetica, sans-serif" font-size="36" font-weight="700" fill="#0b3b53">
    Sitio en construcción
  </text>
</svg>
